#!OML:ASF E:\emotionWalksFemale\Project 1\Capture day 1\Session 1\Female1.ASF
:FULLY-SPECIFIED
:DEGREES
2081
root 8.48376 15.3476 -1.12966 360.037 1.37653 -364.365
lowerback 4.74845 1.43666 3.40393
upperback -4.04715 2.15352 -0.662453
thorax -6.74368 0.880175 -2.8265
lowerneck -4.76894 -1.46015 -4.70035
upperneck 9.58674 -1.991 4.36165
head 4.13026 -0.960443 2.2154
rclavicle 5.86415e-015 1.35174e-014
rhumerus -30.8868 10.3383 -92.2502
rradius 35.065
rwrist 17.6264
rhand 3.11518 -52.4943
rfingers 7.12502
rthumb 28.5706 -80.3311
lclavicle 5.86415e-015 1.35174e-014
lhumerus -37.4881 11.409 77.6885
lradius 33.7813
lwrist -15.8078
lhand -5.64838 -35.2593
lfingers 7.12502
lthumb 20.1703 -6.28644
rfemur 18.7671 13.7881 38.329
rtibia 6.04305e-014
rfoot -8.70724 -20.8026
rtoes 11.9351
lfemur -38.2179 -34.2987 0.623286
ltibia 24.6299
lfoot -33.6743 30.5082
ltoes 9.22268
2082
root 8.49353 15.3397 -1.03745 360.062 1.01744 -364.606
lowerback 4.87574 1.4836 3.67254
upperback -4.05992 2.24783 -0.583897
thorax -6.81863 0.91363 -2.9092
lowerneck -4.36501 -1.19419 -4.84219
upperneck 8.92815 -1.65768 4.75603
head 3.80876 -0.786885 2.38468
rclavicle 1.76918e-014 1.74931e-014
rhumerus -30.8574 10.7061 -92.4892
rradius 34.9683
rwrist 17.7491
rhand 3.57411 -52.6187
rfingers 7.12502
rthumb 29.009 -80.3809
lclavicle 1.76918e-014 1.74931e-014
lhumerus -38.1332 12.1544 76.7271
lradius 33.1642
lwrist -17.2116
lhand -5.4337 -34.9563
lfingers 7.12502
lthumb 20.3767 -6.00535
rfemur 19.1274 13.6189 38.5244
rtibia -6.36111e-015
rfoot -9.01744 -20.2493
rtoes 12.9155
lfemur -38.5728 -35.1115 1.53366
ltibia 24.3713
lfoot -35.4287 30.7608
ltoes 13.2297
2083
root 8.50295 15.327 -0.946705 360.21 0.558305 -364.807
lowerback 4.8413 1.5568 3.8068
upperback -4.06199 2.36342 -0.452207
thorax -6.79299 0.968222 -2.85677
lowerneck -4.37511 -1.01913 -4.86108
upperneck 8.64073 -1.41662 4.80741
head 3.69704 -0.665479 2.41317
rclavicle 3.36443e-014 9.54166e-015
rhumerus -30.8301 11.146 -92.6567
rradius 34.9929
rwrist 17.6844
rhand 3.80807 -52.7345
rfingers 7.12502
rthumb 29.2324 -80.4581
lclavicle 3.36443e-014 9.54166e-015
lhumerus -38.6523 12.978 75.8729
lradius 32.5056
lwrist -18.4943
lhand -5.24014 -34.4886
lfingers 7.12502
lthumb 20.5627 -5.55767
rfemur 19.3688 13.5842 38.6533
rtibia -4.45278e-014
rfoot -9.13263 -19.9468
rtoes 12.442
lfemur -38.7761 -35.0192 1.91997
ltibia 24.1538
lfoot -35.821 31.3475
ltoes 12.1609
2084
root 8.51359 15.3119 -0.853696 360.374 0.0357901 -364.942
lowerback 4.78091 1.66018 3.90408
upperback -4.04874 2.51258 -0.355537
thorax -6.73332 1.04135 -2.82208
lowerneck -4.91969 -1.00043 -4.48747
upperneck 8.89075 -1.3546 4.23955
head 3.87172 -0.640345 2.15772
rclavicle 3.57812e-015 6.36111e-015
rhumerus -30.7337 11.5104 -92.787
rradius 35.0571
rwrist 17.4508
rhand 4.33525 -53.1795
rfingers 7.12502
rthumb 29.7357 -80.8143
lclavicle 3.57812e-015 6.36111e-015
lhumerus -39.1941 13.5449 75.138
lradius 31.9803
lwrist -19.5537
lhand -5.18238 -33.9223
lfingers 7.12502
lthumb 20.6182 -4.99736
rfemur 19.6222 13.6182 38.7015
rtibia -1.27222e-014
rfoot -8.87922 -19.8469
rtoes 11.3152
lfemur -38.587 -34.0215 1.56852
ltibia 23.9712
lfoot -34.0798 32.4514
ltoes 5.17187
2085
root 8.525 15.3056 -0.761041 360.589 -0.452901 -365.073
lowerback 4.86555 1.75817 4.01705
upperback -4.15995 2.66317 -0.297291
thorax -6.88802 1.1059 -2.84553
lowerneck -4.9788 -0.983762 -3.94676
upperneck 8.80984 -1.30875 3.53328
head 3.83132 -0.62851 1.81842
rclavicle -1.99779e-014 -1.98785e-014
rhumerus -30.8059 11.7099 -92.9466
rradius 35.1467
rwrist 17.4762
rhand 5.12046 -53.426
rfingers 7.12502
rthumb 30.4849 -80.9244
lclavicle -1.99779e-014 -1.98785e-014
lhumerus -39.9457 13.9619 74.2842
lradius 31.4467
lwrist -20.5581
lhand -5.17555 -33.7352
lfingers 7.12502
lthumb 20.6247 -4.81095
rfemur 19.7947 13.6425 38.7056
rtibia 3.18055e-014
rfoot -8.54581 -19.6038
rtoes 10.9515
lfemur -38.3764 -33.1511 1.32864
ltibia 23.7973
lfoot -33.6627 32.0626
ltoes 5.5762
2086
root 8.54042 15.308 -0.66652 360.796 -0.85135 -365.19
lowerback 4.95295 1.81735 4.17803
upperback -4.30394 2.76542 -0.269448
thorax -7.0799 1.14155 -2.92426
lowerneck -4.5156 -0.861803 -3.26575
upperneck 7.9922 -1.14555 2.90942
head 3.42825 -0.552913 1.48284
rclavicle -1.40143e-014 -3.18055e-015
rhumerus -30.9689 12.0139 -93.1975
rradius 35.243
rwrist 17.3102
rhand 5.62799 -53.5865
rfingers 7.12502
rthumb 30.9688 -80.994
lclavicle -1.40143e-014 -3.18055e-015
lhumerus -40.6883 14.4292 73.3383
lradius 30.891
lwrist -21.548
lhand -5.04356 -33.8647
lfingers 7.12502
lthumb 20.7516 -4.95425
rfemur 19.938 13.5858 38.6619
rtibia -6.36111e-015
rfoot -7.9344 -19.3581
rtoes 11.931
lfemur -38.2873 -32.7453 1.33841
ltibia 23.6874
lfoot -34.5476 30.7833
ltoes 11.3296
2087
root 8.56003 15.3086 -0.568532 360.849 -1.05763 -365.194
lowerback 5.02733 1.79657 4.25923
upperback -4.33361 2.75144 -0.228689
thorax -7.15481 1.12902 -2.92949
lowerneck -4.1829 -0.747463 -2.85851
upperneck 7.40922 -0.987678 2.47319
head 3.14695 -0.480112 1.26649
rclavicle 1.28713e-014 7.95139e-015
rhumerus -31.0579 12.5034 -93.392
rradius 35.3125
rwrist 16.9248
rhand 5.64488 -53.8553
rfingers 7.12502
rthumb 30.9849 -81.2596
lclavicle 1.28713e-014 7.95139e-015
lhumerus -41.603 14.5957 72.7311
lradius 30.9844
lwrist -22.0345
lhand -4.72714 -33.4838
lfingers 7.12502
lthumb 21.0556 -4.60688
rfemur 20.2598 13.3009 38.5092
rtibia -3.49861e-014
rfoot -7.19659 -19.1938
rtoes 14.029
lfemur -37.9537 -32.0057 0.719498
ltibia 23.6704
lfoot -33.7184 30.2206
ltoes 10.8308
2088
root 8.57774 15.3038 -0.468074 360.824 -1.1169 -365.251
lowerback 5.09171 1.74381 4.30824
upperback -4.27516 2.69397 -0.112904
thorax -7.13776 1.10277 -2.83064
lowerneck -3.96354 -0.540253 -2.98638
upperneck 6.8541 -0.709335 2.61135
head 2.91021 -0.34075 1.34044
rclavicle -3.18055e-014 -6.36111e-015
rhumerus -31.1147 12.9392 -93.412
rradius 35.4361
rwrist 16.7554
rhand 5.52564 -54.1425
rfingers 7.12502
rthumb 30.8712 -81.5685
lclavicle -3.18055e-014 -6.36111e-015
lhumerus -42.8785 14.1982 72.5585
lradius 31.8868
lwrist -21.8137
lhand -4.25359 -32.6891
lfingers 7.12502
lthumb 21.5104 -3.86354
rfemur 20.6727 12.8486 38.434
rtibia -1.90833e-014
rfoot -7.28909 -18.763
rtoes 13.8887
lfemur -37.3473 -30.7163 -0.321971
ltibia 23.6871
lfoot -31.8269 29.598
ltoes 6.95418
2089
root 8.58949 15.2979 -0.364908 360.952 -1.35231 -365.305
lowerback 4.94416 1.78542 4.3413
upperback -4.18515 2.74461 -0.0743419
thorax -6.95234 1.13372 -2.80535
lowerneck -3.99466 -0.337285 -3.16811
upperneck 6.38564 -0.438386 2.9108
head 2.7534 -0.19966 1.47694
rclavicle 1.799e-014 1.11319e-014
rhumerus -30.9905 13.2072 -93.4047
rradius 35.5613
rwrist 16.6635
rhand 5.3988 -54.2659
rfingers 7.12502
rthumb 30.7503 -81.7146
lclavicle 1.799e-014 1.11319e-014
lhumerus -43.1548 14.681 71.805
lradius 31.0018
lwrist -22.6076
lhand -4.17429 -32.7956
lfingers 7.12502
lthumb 21.5866 -3.97874
rfemur 20.9565 12.6102 38.341
rtibia -5.725e-014
rfoot -7.87744 -18.1455
rtoes 11.3891
lfemur -36.7888 -29.2691 -1.26808
ltibia 23.7088
lfoot -29.8629 28.9788
ltoes 2.39778
